<svg width="400" height="270" viewBox="0 0 400 270" fill="none" xmlns="http://www.w3.org/2000/svg">
<g clip-path="url(#clip0_21811_110073)">
<g opacity="0.41">
<path d="M20.4365 181.515C19.9219 176.701 19.8012 171.849 20.0934 167.016C21.4718 144.322 31.7621 122.44 47.7183 106.546C53.4097 100.876 59.9587 95.719 63.484 88.4441C69.4232 76.1903 68.2417 62.5348 75.7625 50.3508C83.2896 38.1541 94.6661 28.3485 107.77 22.9257C146.848 6.76484 203.698 26.6995 201.126 75.8288C201.119 76.0064 201.107 76.2601 201.107 76.5836C200.948 86.7697 209.193 94.8882 219.146 94.6028C255.899 93.5499 288.936 120.728 297.53 156.912C303.057 180.183 297.225 206.32 281.193 223.845C269.226 236.923 252.679 244.636 236.011 250.217C202.599 261.405 167.041 265.262 131.927 263.517C99.0553 261.887 64.0811 254.13 41.6458 229.598C29.6786 216.513 22.3357 199.312 20.4237 181.508L20.4365 181.515Z" fill="#a5c9db3d"/>
</g>
<g opacity="0.31">
<path d="M204.911 19.7652C205.009 15.1109 201.387 11.2597 196.82 11.1634C192.254 11.0671 188.472 14.7621 188.374 19.4164C188.275 24.0707 191.897 27.9218 196.464 28.0181C201.03 28.1144 204.812 24.4195 204.911 19.7652Z" fill="#a5c9db3d"/>
</g>
<g opacity="0.31">
<path d="M56.5135 19.8106C56.6342 22.2081 58.6414 24.0538 60.9917 23.9269C63.3483 23.8 65.1586 21.7577 65.0379 19.3539C64.9172 16.9564 62.91 15.1108 60.5597 15.2376C58.2031 15.3645 56.3928 17.4068 56.5135 19.8106Z" fill="#a5c9db3d"/>
</g>
<g opacity="0.31">
<path d="M302.008 118.121C302.09 119.707 303.412 120.931 304.974 120.848C306.531 120.766 307.731 119.409 307.649 117.823C307.566 116.237 306.245 115.013 304.682 115.096C303.126 115.178 301.925 116.535 302.008 118.121Z" fill="#a5c9db3d"/>
</g>
<g opacity="0.31">
<path d="M288.843 263.282C288.997 255.952 283.293 249.888 276.103 249.738C268.913 249.588 262.96 255.408 262.806 262.738C262.652 270.068 268.356 276.132 275.546 276.282C282.736 276.432 288.69 270.612 288.843 263.282Z" fill="#a5c9db3d"/>
</g>
<path opacity="0.8" d="M18.4752 51.5367C14.3972 44.3696 16.7983 35.1919 23.83 31.0312C30.8616 26.8705 44.7471 26.4138 48.8251 33.5809C52.9031 40.748 42.1047 47.6487 37.9187 54.7523C32.0812 64.6594 22.5532 58.7037 18.4816 51.5367H18.4752Z" fill="#ECF1F7"/>
<path opacity="0.8" d="M61.3696 276.088C56.3198 279.805 49.2754 278.644 45.6357 273.494C41.996 268.344 40.6112 257.587 45.6674 253.87C50.7173 250.153 56.6945 258.018 62.3224 260.733C70.1672 264.513 66.4322 272.371 61.376 276.088H61.3696Z" fill="#a5c9db3d"/>
<path opacity="0.8" d="M261.572 4.80462C267.048 -0.941724 276.049 -1.07492 281.677 4.50018C287.304 10.0753 291.344 23.1219 285.869 28.8682C280.393 34.6146 271.278 26.1853 263.707 24.0796C253.143 21.143 256.097 10.551 261.572 4.80462Z" fill="#a5c9db3d"/>
<path opacity="0.32" d="M30.7296 83.3498C27.0327 93.9799 26.0227 105.593 28.4174 116.578C31.6316 131.35 42.7158 144.34 40.8293 160.095C39.6986 169.551 39.8955 178.215 39.6669 187.507C39.1968 206.579 52.5487 222.372 68.2064 230.275C80.9232 236.694 95.3867 238.387 109.342 237.163C121.906 236.059 134.274 232.768 146.216 228.683C157.725 224.751 168.892 219.86 181.304 220.228C191.626 220.533 201.192 224.364 210.987 227.021C234.369 233.37 262.032 232.469 281.907 218.706C303.695 203.624 312.492 175 304.876 149.985C300.792 136.57 295.342 124.938 297.311 110.648C298.283 103.614 299.731 96.4599 298.391 89.4894C297.158 83.0708 293.639 77.2991 289.46 72.2758C278.191 58.7217 262.159 50.0769 245.485 44.9965C226.568 39.2311 205.575 36.0852 185.909 39.0725C147.708 44.876 139.393 39.2311 99.4583 33.5672C72.7037 29.7744 47.5942 51.0155 35.3983 72.9227C33.5499 76.2462 31.9873 79.7409 30.7296 83.3498Z" fill="#a5c9db3d"/>


</svg>
