<svg width="800px" height="800px" viewBox="0 0 512 512" xmlns="http://www.w3.org/2000/svg" fill="#000000">
<style>
    :root {
      --awful-color: #eb0000; /* Culorea implicită */
      --awful-bg-color:transparent;
      --awful-border-color:transparent
    }
  </style>

  <circle cx="256" cy="256" r="260" fill="none" stroke="var(--awful-border-color)" stroke-width="10"/>
  <circle cx="256" cy="256" r="256" fill="var(--awful-bg-color)"/>
<g id="SVGRepo_bgCarrier" stroke-width="0"/>

<g id="SVGRepo_tracerCarrier" stroke-linecap="round" stroke-linejoin="round"/>

<g id="SVGRepo_iconCarrier">
<path  fill="var(--awful-color)" d="M256,16C123.452,16,16,123.452,16,256S123.452,496,256,496,496,388.548,496,256,388.548,16,256,16ZM403.078,403.078a207.253,207.253,0,1,1,44.589-66.125A207.332,207.332,0,0,1,403.078,403.078Z" class="ci-primary"/>
<path fill="var(--awful-color)" d="M256,280A104,104,0,0,0,152,384H360A104,104,0,0,0,256,280Z" class="ci-primary"/>
<rect width="32.001" height="96.333" x="148" y="159.834" fill="var(--awful-color)" class="ci-primary" transform="rotate(-48.366 164.002 208.001)"/> <rect width="96.333" height="32" x="291.834" y="192" fill="var(--awful-color)" class="ci-primary" transform="rotate(-48.366 340.002 208)"/> </g>

</svg>
