<svg width="800px" height="800px" viewBox="0 0 512 512" xmlns="http://www.w3.org/2000/svg" fill="#000000">
 <style>
    :root {
      --good-color: #96d954; /* Culorea implicită */
      --good-bg-color:transparent;
    }
  </style>

  <circle cx="256" cy="256" r="256" fill="var(--good-bg-color)"/>

<g id="SVGRepo_bgCarrier" stroke-width="0"/>

<g id="SVGRepo_tracerCarrier" stroke-linecap="round" stroke-linejoin="round"/>

<g id="SVGRepo_iconCarrier">
 <path fill="var(--good-color)" d="M256,16C123.452,16,16,123.452,16,256S123.452,496,256,496,496,388.548,496,256,388.548,16,256,16ZM403.078,403.078a207.253,207.253,0,1,1,44.589-66.125A207.332,207.332,0,0,1,403.078,403.078Z" class="ci-primary"/>
 <rect width="40" height="40" x="152" y="200" fill="var(--good-color)" class="ci-primary"/>
 <rect width="40" height="40" x="320" y="200" fill="var(--good-color)" class="ci-primary"/> <path fill="var(--good-color)" d="M256,384A104,104,0,0,0,360,280H152A104,104,0,0,0,256,384Z" class="ci-primary"/> </g>

</svg>
