<svg width="800px" height="800px" viewBox="0 0 512 512" xmlns="http://www.w3.org/2000/svg">
  <style>
    :root {
      --rad-color: #21c098; /* Culorea implicită */
      --rad-bg-color:transparent;
      --rad-border-color:transparent
    }
  </style>

    <circle cx="256" cy="256" r="260" fill="none" stroke="var(--rad-border-color)" stroke-width="10"/>
    <circle cx="256" cy="256" r="256" fill="var(--rad-bg-color)"/>

  <g id="SVGRepo_bgCarrier" stroke-width="0"/>
  <g id="SVGRepo_tracerCarrier" stroke-linecap="round" stroke-linejoin="round"/>
  <g id="SVGRepo_iconCarrier">
    <path fill="var(--rad-color)" d="M256,16C123.452,16,16,123.452,16,256S123.452,496,256,496,496,388.548,496,256,388.548,16,256,16ZM403.078,403.078a207.253,207.253,0,1,1,44.589-66.125A207.332,207.332,0,0,1,403.078,403.078Z" class="ci-primary"/>
    <path fill="var(--rad-color)" d="M256,384A104,104,0,0,0,360,280H152A104,104,0,0,0,256,384Z" class="ci-primary"/>
    <polygon fill="var(--rad-color)" points="205.757 228.292 226.243 203.708 168 155.173 109.757 203.708 130.243 228.292 168 196.827 205.757 228.292" class="ci-primary"/>
    <polygon fill="var(--rad-color)" points="285.757 203.708 306.243 228.292 344 196.827 381.757 228.292 402.243 203.708 344 155.173 285.757 203.708" class="ci-primary"/>
  </g>
</svg>
